<svg xmlns="http://www.w3.org/2000/svg" version="1.1" xmlns:xlink="http://www.w3.org/1999/xlink" xmlns:svgjs="http://svgjs.dev/svgjs" width="2000" height="2250" viewBox="0 0 2000 2250"><g transform="matrix(1,0,0,1,0.000012850225743932242,0)"><svg viewBox="0 0 320 360" data-background-color="#ffffff" preserveAspectRatio="xMidYMid meet" height="2250" width="2000" xmlns="http://www.w3.org/2000/svg" xmlns:xlink="http://www.w3.org/1999/xlink"><g id="tight-bounds" transform="matrix(1,0,0,1,0.0000020560361235766322,0)"><svg viewBox="0 0 320 360" height="360" width="320"><g><svg></svg></g><g><svg viewBox="0 0 320 360" height="360" width="320"><g><path transform="translate(-15.58119,4.24857) scale(3.51065,3.51065)" d="M51.5 85.2c-0.4-0.5-0.8-0.2-0.8-0.5-2.4 0.6-6.9-1-8.8-0.8 0.4-0.6-0.6-0.5-0.6-0.9-0.4 0.6-0.8 0-1.4 0.2-0.6-1.5-3-0.4-3.3-2.3-1.4 0-1.9-0.8-3.3-1.6 0.1-0.1 0.2-0.1 0.3-0.2-0.7-0.1-0.7-0.5-1.3-0.5l0.2-0.4c-1.1-0.2-1.5-1.9-3.1-2.5-0.5-0.1-1.6-1.8-2.2-2.2-0.3-0.2-0.8-0.2-0.1-0.3-0.1-0.1-0.1-0.3 0-0.4-0.7-0.2-0.8-0.8-1.7-1.1-0.1-0.3 0.2-0.5 0-0.7-0.2-0.1-0.5 0.1-0.7 0-0.1 1.8 1.9 2 2.5 3.5-0.2-0.2-0.5-0.8-0.7-0.4-0.1 0.3 0.8 1.4 0.8 0.8-0.3 0.2-0.4-0.3-0.2-0.4 0.3 0.5 0.9 0.4 0.9 0.8-0.3 0.3-0.7-0.3-0.6 0.2 0.9 0.5 0.8 1 1.3 1.7-0.4-0.5-0.5 0.4-0.9 0-0.1-1.5-1.8-1.2-1.8-2.7-0.2-0.5-0.4-0.1-0.7-0.3 0.4-0.4-1.2-1.8-1.2-1.3-0.5-0.6-0.2-0.8-0.3-1.2-0.4-0.1-0.1 0.4-0.4 0.1 0.4-0.7-0.5-1.6-1.1-2.3l0.4-0.2c-0.7-0.4-0.8-1.2-1.3-2.1-0.6 0.9 1.2 2.9 0.9 3.3 0 0.1 0.7 0.9 0.9 1.3 0.8 1.4 1.4 3.1 2.5 3.9-0.2-0.1-0.1-0.7 0.2-0.4 0 0.3-0.2 0.6-0.2 0.9 0.6 0.6 1.1 1.1 1.7 1.7-1.3-0.8-2.6-1.6-3.5-2.8 0.5-0.1 1 0.8 1.4 0.7-1-0.8-0.7-1.1-1.1-2.1-0.4-0.3 0.1 0.4-0.3 0.5-1.3-1.2-2.3-1.9-2.9-3 0.1-0.1 0.2-0.2 0.2-0.4-0.1-0.1-0.1-0.1-0.2-0.2 0.6 0.6 0.8 1.1 1.5 1.2-0.3-0.3 0-0.4-0.4-0.7-0.2-0.4-0.5 0.2-0.7-0.1 0.2-0.3 0-0.7 0-1-0.2 0-0.4 0-0.5-0.3-0.2-0.1-0.3 0-0.4 0.2-0.1-0.1-0.1-0.3-0.2-0.4v-0.1c-0.1-0.1-0.2-0.3-0.3-0.4-0.8-2.1-1.3-4.9-2.4-6.7 0.3-1.2-0.2-3.6-0.5-4.2 0.3-0.5 0.1-2.8-0.1-3.2-0.5 0.2 0.1 1.3-0.4 1.6-0.5-2.2 0.3-4.7 0.1-6.7 0.2 0 0.4 0 0.4-0.1-0.3-0.3 0.2-0.9 0.1-1.6 0.4-0.9-0.9 1.3-0.9 2.2-0.1 0.2-0.5 0-0.4 0.5 0 0.7 0.2 2.1-0.2 3.1-0.2 0-0.2-0.2-0.4-0.1-0.1 0.5-0.2 1.1-0.3 1.6-0.1-0.2-0.2-0.5-0.2-0.6-0.5-2.5 0-5.4-0.2-7.5 0.4 0 0.4-0.6 0.7-0.8-0.1 0.8-0.3 1.8 0.2 2 0.4-3.9 1.2-8.2 3-12.4 1.3-3.1 3.2-6.2 5.5-8.7 0.2 0.3-0.1 1 0 1.3 2-2.1 3.3-4.6 5.5-6 0.1 0.5-0.9 0.9-0.9 1.3 0.9-0.9 1.2-0.6 2.2-0.9 0.3-0.4-0.4 0-0.5-0.4 0.6-0.4 1-0.9 1.4-1.2 0 0.1-0.1 0.1-0.1 0.2 1.1-0.3 1.2-0.9 2-1.1-0.1-0.1-0.3-0.2-0.6-0.1 0.2-0.1 0.5-0.3 0.8-0.4-0.1 0-0.1 0.1-0.2 0.1 0.6-0.3 0.1 0.1 0.1 0.3 0.1 0 0.2-0.1 0.2-0.1-0.6 0.4-1 0.6-1.2 1.3 0.3-0.2 0.4 0 0.8-0.3 0.4-0.2-0.1-0.5 0.2-0.7 0.3 0.2 0.7 0.1 1 0.1 0-0.2 0.1-0.4 0.3-0.5 0.1-0.2 0-0.3-0.1-0.3 0.1-0.1 0.2-0.1 0.4-0.2 0 0 0.1 0 0.1 0.1 1.7-0.8 3.6-1.5 5.4-2.1 1.1-0.1 2.5-0.1 3.1-0.8-0.2 0-0.4 0.1-0.5 0 0.1 0 0.3-0.1 0.4-0.1 0.2 0.2 0.5 0 0.2 0.4 0.1 0 0.1 0 0.2-0.1 0 0.1 0 0.1 0.1 0.2 0.1 0 0.2-0.1 0.3-0.3 0.1 0 0.2 0 0.3-0.1l-0.1 0.1c0.8-0.2 1.5-0.1 2.6-0.3 0-0.1 0-0.2 0-0.3 0.2 0 0.3-0.1 0.5-0.1v0.1c0.4-0.2 0.8 0.2 0.8 0 0.1 0 0.1 0 0.2 0 0 0.2-0.1 0.3-0.1 0.4 0.5 0 0.8 0 1-0.3-0.1-0.1-0.2-0.1-0.3-0.1 0.2 0 0.4-0.1 0.6-0.2 0.3 0.1 0.4 0.2 0.4 0.6 0.5-0.9 2.1 0.2 2.8 0 0.3 0 0.2-0.4 0.4-0.6 0.1 0 0.2 0 0.3 0 0.5 0.4 1.2 0.8 2.1 0.9-0.8-0.2 0.1-0.3 0.2-0.4-0.2 0-0.2-0.1-0.2-0.2 0.3 0 0.6 0.1 0.9 0.1 0 0.2 0.1 0.3 0.3 0.3 0.2 0 0.2-0.1 0.2-0.3 0.3 0 0.5 0 0.8 0.1-0.1 0.4 0.5 0.5 0.7 0.8-0.8-0.2-1.7-0.5-2 0 3.2 0.7 6.7 1.7 10.1 3.4 0 0 0 0 0 0.1h0.1c0.6 0.3 1.2 0.6 1.8 0.9 0.4 0.2 0.7 0.4 1.1 0.7 0 0.1 0 0.2 0.2 0.2h0.1c0.4 0.3 0.8 0.5 1.2 0.8 0.4 0.6 0.8 1.4 1.5 1.2 1.5 2.3 3.1 3.2 4.4 5.6 0.1-0.4 0.4 0.9 0.9 1-0.8-0.1 0.5 0.5-0.3 0.4 0.7 0.7 0.9 1 1 1.8-0.2-0.4-0.3-0.5-0.4-0.1-0.1 0.6 0.7-0.1 1 0.5-0.6 0-0.4 0.4-0.3 0.9 0.3-0.3 0.2-0.6 0.5-0.5 0.4 0.4-0.2 0.5-0.1 0.8 0.3-0.4 0.4-0.2 0.8 0-0.5 0.1 0.3 0.8-0.3 0.5 0.4 0.5 0.5 0.8 0.3 1.3-0.4-0.6-0.1-1-0.7-0.9 1.2 1 0.6 3.3 2 3.5-0.9 0.2 0 0.6-0.5 0.7 0.6 0.2 0.3 1 1 1.2-0.1 0.5-0.3 0.8-0.4 1.3 0.3 0.4 0.4 1.2 0.9 1.3-0.3 0.3-0.1 1.1-0.4 1.4 0.4-0.2 0.6-0.2 0.9 0.2-0.5 0.4-0.1 0.8-0.4 0.9 0.9 2.3-0.2 7 0.3 8.8-0.6-0.3-0.4 0.7-0.8 0.7 0.7 0.3 0.1 0.8 0.4 1.3-1.4 0.8 0 3-1.9 3.5 0.2 1.4-0.6 2-1.2 3.5-0.1-0.1-0.1-0.2-0.2-0.3-0.1 0.7-0.5 0.8-0.3 1.4l-0.4-0.2c0 1.1-1.7 1.7-2.1 3.4-0.1 0.5-1.6 1.8-2 2.5-0.2 0.3-0.1 0.8-0.3 0.1-0.1 0.1-0.3 0.1-0.4 0.1-0.1 0.7-0.7 0.9-0.9 1.8-0.2 0.1-0.5-0.2-0.7 0.1 0 0.2 0.2 0.5 0.1 0.7 1.8-0.1 1.8-2.2 3.2-2.9-0.1 0.3-0.7 0.6-0.3 0.8 0.3 0 1.2-1 0.7-0.9 0.3 0.2-0.3 0.4-0.4 0.3 0.5-0.4 0.3-0.9 0.7-1 0.3 0.2-0.3 0.7 0.3 0.6 0.4-0.9 0.9-1 1.5-1.5-0.4 0.4 0.5 0.5 0.1 0.9-1.5 0.3-1 2-2.5 2.2-0.4 0.3-0.1 0.4-0.2 0.7-0.5-0.3-1.6 1.4-1.2 1.3-0.5 0.5-0.8 0.3-1.2 0.4-0.1 0.4 0.4 0.1 0.2 0.4-0.7-0.3-1.6 0.7-2.2 1.4l-0.3-0.3c-0.3 0.8-1.1 0.9-2 1.5 1 0.5 2.7-1.6 3.2-1.3 0.1 0 0.9-0.8 1.2-1.1 1.3-1 2.9-1.8 3.5-2.9-0.1 0.2-0.7 0.2-0.4-0.1 0.3-0.1 0.6 0.1 0.9 0.1 1.6-2.2 3.6-4 5.1-6.6 0.1-0.1 0.2-0.3 0.3-0.5-0.2 0.6-0.5 1.1-0.7 1.7-1.6 1.1-2.2 4.3-4.1 4.8 0.1 1.1-0.9 1.4-1.4 2.7-0.3 0.4-0.5-0.3-0.8 0.2 0.3 1.4-2.5 1.3-2.4 2.6-0.2 0.1-0.5 0.2-0.7 0.4h-0.1c-0.1 0.1-0.1 0.1-0.2 0.2-0.5 0.3-0.9 0.6-1.3 0.9-1.4 0.8-3.3 1.4-4.8 2.2v-0.1c-0.4 0.2-0.9 0.1-0.8 0.5-0.3 0.2-0.6 0.4-0.9 0.6-0.1 0-0.1 0-0.2 0 0 0-0.1-0.1-0.2-0.1-0.2 0-0.2 0-0.3 0.1-1.3 0.1-3 0.7-3.5 1.1-0.5-0.3-2.8 0.2-3.2 0.4 0.2 0.3 0.8 0 1.3 0-0.3 0.1-0.6 0.2-0.7 0.4-0.1 0-0.1 0-0.2 0-0.1-0.3-0.4 0-0.5-0.1h0.1c-0.1-0.4-0.4-0.6-0.9-0.5 0 0.2 0 0.3-0.1 0.5 0.2 0 0.8-0.3 0.8 0-0.1 0-0.1 0.1 0 0.1-0.2 0.2-0.5 0.2-0.7 0.3-0.4 0-0.9 0-1.3 0-0.1-0.1-0.2-0.1-0.4-0.2-0.1 0.1-0.3 0.1-0.4 0.2-0.6 0-1.3 0.1-1.8 0.2 0-0.2 0-0.4-0.2-0.4-0.3 0.4-0.9-0.1-1.6 0.1-0.7-0.2 0.4 0.3 1.4 0.5-0.1 0.1-0.2 0.2-0.5 0.3M37.5 86.6c-1.4-1.3-4.3-1.9-4.8-2.9-0.8-0.1-2-1.6-3-1.8 0.5 0 0.1-0.3 0-0.5-0.2 0.2-0.4 0.3-0.6 0.3 0-0.8-0.8-1.3-1.5-1.8 0.5 0.3 0.9 0.5 1.5 0.6 0-0.2 0-0.4 0.2-0.4 0.7 0.7 1.5 1.4 2.4 2.1 1.2 1.1 7.4 3.9 8.5 4.4 0 0-0.2 0.4-0.1 0.4 0.5 0.3 0.9-0.3 1 0.4-1.6 0.2-2.2-0.9-3.6-0.8M83.6 63.4v0.1 0c-0.1 0 0-0.1 0-0.1M43.2 17.1c-0.1 0.1-0.2 0.1-0.2 0.1 0-0.1 0.1-0.1 0.2-0.1M41.3 17.6c0 0.1 0 0.1 0 0 0 0.1 0 0.1 0 0 0 0.1 0 0 0 0M34.7 19.7v0c0.1-0.1 0.1-0.1 0.2-0.1-0.1 0-0.2 0.1-0.2 0.1M50.7 16.4c-0.2 0-0.3 0-0.4-0.1 0.1 0 0.2 0 0.3 0h0.1c0 0 0 0 0 0.1M52.5 16.6c-0.1-0.1-0.4-0.2-0.7-0.2 0-0.1 0.1-0.2 0.1-0.2 0.1 0 0.2 0 0.3 0 0 0 0.1 0 0.1 0.1 0 0 0 0 0-0.1 0.1 0 0.1 0 0.2 0 0.1 0.2 0.2 0.3 0 0.4M55.8 16.9c-0.5 0.1-0.8-0.1-1.3-0.4 0.3 0 0.7 0.1 1 0.2 0.1 0 0.2 0.1 0.3 0.2M91.4 31.1c-0.2 0.1-0.3 0.1-0.5-0.3-1.6-3.4-4.5-8.3-8.7-12.4-4.1-4.2-9.6-7.6-14.6-9.4 0.3 0.1 0.7 0.3 0.5 0.5-4.4-1.7-8.6-2.7-12.6-3.1-10.8-1.7-22.1 0.6-30.8 6.2 0.1 0.2 0.1 0.3-0.2 0.5-3.2 2-7.7 5.5-11.3 10.1-3.6 4.6-6.4 10.4-7.6 15.6 0.1-0.3 0.2-0.8 0.4-0.6-2.6 10.3-1.9 19.1 1.7 26.7 0.2-0.2-0.5-1.2 0.1-1.1 0.4 1.1 0.9 2.3 1.5 3.4 0.7 1.6 1.5 3.7 2.6 4.2-2.8-5.5-4.7-11.8-4.9-17.4 0.4 0.8 0.3 2.5 0.9 3.2 0.2-3.8-0.7-8.9 0.6-12.5-0.3 1.9-0.5 4.5-0.3 7.1 0 1.9 0.9 7.2 1.5 7.7-0.1-0.1-0.1-0.6 0-0.6 0.3 0.6-0.4 0.9 0.1 1 0-0.2 0.1-0.2 0.2-0.2 1 2.2 2.3 5.6 3.3 7.3 1.2 2.2 2.8 4.2 4.6 6 0 0.1 0.1 0.1 0.1 0.2 0.2 0.5 0.9 1.1 1.1 1.5 0.1 0.2-0.1 0.5 0 0.7 1.5 2.8 3.7 5.6 6.4 7.8 1.7 2 4.4 4.1 7.7 5.9 3.2 1.7 6.9 3.1 10.3 3.9 2.4 0.6 5.3 0.7 7.1 1.1 2.4 0.5 6.6-0.2 8.7-0.6 12.6-1.9 25.1-10.5 31.4-22.9 6.5-12.5 6.3-27.8 0.7-39.5" fill="#000028" fill-rule="nonzero" stroke="none" stroke-width="1" stroke-linecap="butt" stroke-linejoin="miter" stroke-miterlimit="10" stroke-dasharray="" stroke-dashoffset="0" font-family="none" font-weight="none" font-size="none" text-anchor="none" style="mix-blend-mode: normal" data-fill-palette-color="tertiary"></path></g><g transform="matrix(1,0,0,1,104.4451352684153,108)"><svg viewBox="0 0 111.1097294631694 144" height="144" width="111.1097294631694"><g><svg viewBox="0 0 160 207.36257851871818" height="144" width="111.1097294631694"><g transform="matrix(1,0,0,1,0,115.35910930796362)"><svg viewBox="0 0 160 92.00346921075455" height="92.00346921075455" width="160"><g id="textblocktransform"><svg viewBox="0 0 160 92.00346921075455" height="92.00346921075455" width="160" id="textblock"><g><svg viewBox="0 0 160 92.00346921075455" height="92.00346921075455" width="160"><g transform="matrix(1,0,0,1,0,0)"><svg width="160" viewBox="0.5 -32.5 57.65 33.15" height="92.00346921075455" data-palette-color="#e64833"><path d="M25.7 0.55L25.7 0.55Q24.15 0.55 23.08-0.78 22-2.1 21-5.15L21-5.15Q20.5-6.65 20.18-8.08 19.85-9.5 19.7-10.85L19.7-10.85Q19.05-9.85 18.53-9.53 18-9.2 17-9.2L17-9.2Q14.55-9.2 11.8-9.28 9.05-9.35 6.9-9.4L6.9-9.4Q6.8-8.5 6.73-7.58 6.65-6.65 6.65-5.75L6.65-5.75Q6.65-4.95 6.73-4.15 6.8-3.35 6.85-2.6L6.85-2.6Q7-1.2 5.75-0.35 4.5 0.5 2.65 0.5L2.65 0.5Q1.05 0.5 1.05-0.9L1.05-0.9Q1.05-1.75 1.5-3.45L1.5-3.45Q1.75-4.6 1.9-5.43 2.05-6.25 2.05-6.75L2.05-6.75Q2.05-8.15 1.2-8.65L1.2-8.65Q0.5-9.05 0.5-9.7L0.5-9.7Q0.5-10.3 0.78-11.15 1.05-12 1.5-12.73 1.95-13.45 2.35-13.75L2.35-13.75Q2.7-13.95 3.2-14.1 3.7-14.25 4.45-14.3L4.45-14.3Q6.4-19.9 8.83-23.98 11.25-28.05 14-30.28 16.75-32.5 19.6-32.5L19.6-32.5Q21.35-32.5 22.15-31.33 22.95-30.15 22.95-27.4L22.95-27.4 22.95-25.15Q22.95-20.1 23.7-15.85 24.45-11.6 25.55-8.95L25.55-8.95Q26.65-6.15 28.6-4.35L28.6-4.35Q29.2-3.85 29.4-3.48 29.6-3.1 29.6-2.7L29.6-2.7Q29.6-1.95 29.03-1.2 28.45-0.45 27.55 0.05 26.65 0.55 25.7 0.55ZM8.4-14.6L8.4-14.6Q10.85-14.7 12.7-14.78 14.55-14.85 15.8-14.85L15.8-14.85 19.3-14.85Q19.2-16.25 19.13-17.8 19.05-19.35 19.05-21.05L19.05-21.05 19.05-23.95Q19.05-25.4 18.73-25.88 18.4-26.35 17.5-26.35L17.5-26.35Q15.05-26.35 12.6-23.15 10.15-19.95 8.4-14.6ZM40.15 0.65L40.15 0.65Q38.3 0.65 36.75 0.3 35.2-0.05 34.2-1L34.2-1Q33.45-1.7 33.2-2.58 32.95-3.45 32.95-4.5L32.95-4.5Q32.95-6.2 33.25-7.9L33.25-7.9Q33.7-10.85 34.05-14.25 34.4-17.65 34.4-20.55L34.4-20.55Q34.4-21.45 34.32-22.6 34.25-23.75 34.1-24.75L34.1-24.75Q33.75-24.6 33.42-24.48 33.1-24.35 32.85-24.35L32.85-24.35Q32.4-24.35 32.25-24.8 32.1-25.25 32.1-25.8L32.1-25.8Q32.1-27.25 32.77-28.28 33.45-29.3 35-30.1L35-30.1Q36.65-31 39.32-31.68 42-32.35 44.75-32.35L44.75-32.35Q51-32.35 54.57-28.68 58.15-25 58.15-18.25L58.15-18.25Q58.15-14.4 56.97-10.98 55.8-7.55 53.5-4.93 51.2-2.3 47.85-0.83 44.5 0.65 40.15 0.65ZM41.75-4.95L41.75-4.95Q44-4.95 46.25-5.65 48.5-6.35 50.32-7.75 52.15-9.15 53.25-11.33 54.35-13.5 54.35-16.55L54.35-16.55Q54.35-20 53-22.25 51.65-24.5 49.4-25.6 47.15-26.7 44.4-26.7L44.4-26.7Q42.9-26.7 41.42-26.45 39.95-26.2 39.1-25.95L39.1-25.95Q39.05-23.65 38.82-21.48 38.6-19.3 38.3-17.25L38.3-17.25Q38-15.1 37.82-13.05 37.65-11 37.65-9L37.65-9Q37.65-6.5 38.67-5.73 39.7-4.95 41.75-4.95Z" opacity="1" transform="matrix(1,0,0,1,0,0)" fill="#e64833" class="wordmark-text-0" data-fill-palette-color="primary" id="text-0"></path></svg></g></svg></g></svg></g></svg></g><g transform="matrix(1,0,0,1,23.144000000000005,0)"><svg viewBox="0 0 113.71199999999999 93.63929831056554" height="93.63929831056554" width="113.71199999999999"><g><svg xmlns="http://www.w3.org/2000/svg" xmlns:xlink="http://www.w3.org/1999/xlink" version="1.1" x="8" y="0" viewBox="0.006 10.676 511.9880033380235 490.648" enable-background="new 0 0 512 512" xml:space="preserve" height="93.63929831056554" width="97.71199999999999" class="icon-icon-0" data-fill-palette-color="accent" id="icon-0"><g fill="#e64833" data-fill-palette-color="accent"><path d="M394.66 74.676C400.562 74.676 405.346 69.892 405.346 64.004 405.346 58.112 400.563 53.332 394.66 53.332 388.777 53.332 384.004 58.112 384.004 64.004 384.004 69.892 388.777 74.676 394.66 74.676" fill="#e64833" data-fill-palette-color="accent"></path><path d="M394.66 117.333C400.562 117.333 405.346 112.563 405.346 106.676 405.346 100.783 400.563 96.004 394.66 96.004 388.777 96.004 384.004 100.783 384.004 106.676 384.004 112.563 388.777 117.333 394.66 117.333" fill="#e64833" data-fill-palette-color="accent"></path><path d="M501.336 384H448.004L426.65 352H410.65V330.666H426.65C438.435 330.666 448.004 321.107 448.004 309.322V32.004C448.004 20.225 438.436 10.676 426.65 10.676H21.34C9.56 10.676 0.006 20.225 0.006 32.004V309.322C0.006 321.107 9.56 330.666 21.34 330.666H357.345V352H341.345L320.001 384H266.67A10.66 10.66 0 0 0 256.003 394.666V458.656C256.003 460.558 256.508 462.431 257.479 464.078L276.297 496.078A10.7 10.7 0 0 0 285.502 501.324H482.494C486.277 501.324 489.777 499.324 491.699 496.078L510.533 464.078A10.76 10.76 0 0 0 511.994 458.656V394.666C511.994 388.764 507.219 384 501.336 384M234.665 266.666V234.671C234.665 228.784 229.895 224 224.003 224H213.321L213.316 213.328C213.316 207.435 208.532 202.671 202.649 202.671H202.644L160.002 202.686C154.109 202.686 149.34 207.47 149.34 213.343V224H64.002V74.676H266.67V85.333H213.336C207.449 85.333 202.665 90.112 202.665 96.004V138.676C202.665 144.564 207.45 149.328 213.336 149.328H224.003V181.328C224.003 187.22 228.777 192 234.665 192H266.67V266.666zM149.34 266.666V245.328H160.002C165.894 245.328 170.669 240.563 170.669 234.671V224.015L191.993 224 192.003 234.671C192.013 240.564 196.782 245.328 202.665 245.328H213.336V266.666zM64.002 266.666V245.328H128.002V266.666zM234.665 127.999H224.003V106.676H266.67V170.671H245.336V138.676C245.336 132.784 240.556 127.999 234.665 127.999M288.002 181.328V74.676H341.346V155.02C328.248 166.735 320.002 183.75 320.002 202.671 320.002 221.578 328.248 238.593 341.346 250.328V266.666H288.002zM341.346 202.671C341.346 179.142 360.475 159.999 384.004 159.999S426.65 179.142 426.65 202.671C426.65 226.186 407.533 245.328 384.004 245.328S341.346 226.186 341.346 202.671M410.65 309.322V260.842A64 64 0 0 0 426.65 250.328V309.322zM21.34 309.322V32.004H426.65V154.999A63.63 63.63 0 0 0 384.004 138.676 63.7 63.7 0 0 0 362.66 142.328V74.676C362.66 62.892 353.121 53.332 341.346 53.332H64.002C52.223 53.332 42.669 62.892 42.669 74.676V266.666C42.669 278.451 52.223 288 64.002 288H341.346C347.7 288 353.424 285.205 357.346 280.764V309.323zM378.66 266.441A61 61 0 0 0 384.004 266.666 60 60 0 0 0 389.346 266.441V352H378.66zM352.748 373.324H415.249L426.651 390.451V405.324H341.376L341.347 390.431zM320.062 405.324L320.082 416A10.657 10.657 0 0 0 330.748 426.666H437.346C443.219 426.666 448.004 421.893 448.004 416V405.324H490.65V448H277.346V405.324zM476.406 480H291.592L285.317 469.324H482.69z" fill="#e64833" data-fill-palette-color="accent"></path><path d="M384.004 192C386.719 192 389.465 190.955 391.533 188.877 395.699 184.705 395.699 177.955 391.533 173.799A10.56 10.56 0 0 0 384.004 170.671C366.375 170.671 352.063 184.97 352.004 202.578 351.963 205.328 353.014 208.093 355.121 210.205 359.277 214.377 366.033 214.377 370.219 210.205A10.73 10.73 0 0 0 373.346 202.671C373.346 196.784 378.121 192 384.004 192" fill="#e64833" data-fill-palette-color="accent"></path></g></svg></g></svg></g><g></g></svg></g></svg></g></svg></g><defs></defs></svg><rect width="320" height="360" fill="none" stroke="none" visibility="hidden"></rect></g></svg></g></svg>