<svg xmlns="http://www.w3.org/2000/svg" version="1.1" xmlns:xlink="http://www.w3.org/1999/xlink" xmlns:svgjs="http://svgjs.dev/svgjs" width="2000" height="2250" viewBox="0 0 2000 2250"><g transform="matrix(1,0,0,1,0.000012850225743932242,0)"><svg viewBox="0 0 320 360" data-background-color="#ffffff" preserveAspectRatio="xMidYMid meet" height="2250" width="2000" xmlns="http://www.w3.org/2000/svg" xmlns:xlink="http://www.w3.org/1999/xlink"><g id="tight-bounds" transform="matrix(1,0,0,1,0.0000020560361235766322,0)"><svg viewBox="0 0 320 360" height="360" width="320"><g><svg></svg></g><g><svg viewBox="0 0 320 360" height="360" width="320"><g><path transform="translate(-15.58119,4.24857) scale(3.51065,3.51065)" d="M51.5 85.2c-0.4-0.5-0.8-0.2-0.8-0.5-2.4 0.6-6.9-1-8.8-0.8 0.4-0.6-0.6-0.5-0.6-0.9-0.4 0.6-0.8 0-1.4 0.2-0.6-1.5-3-0.4-3.3-2.3-1.4 0-1.9-0.8-3.3-1.6 0.1-0.1 0.2-0.1 0.3-0.2-0.7-0.1-0.7-0.5-1.3-0.5l0.2-0.4c-1.1-0.2-1.5-1.9-3.1-2.5-0.5-0.1-1.6-1.8-2.2-2.2-0.3-0.2-0.8-0.2-0.1-0.3-0.1-0.1-0.1-0.3 0-0.4-0.7-0.2-0.8-0.8-1.7-1.1-0.1-0.3 0.2-0.5 0-0.7-0.2-0.1-0.5 0.1-0.7 0-0.1 1.8 1.9 2 2.5 3.5-0.2-0.2-0.5-0.8-0.7-0.4-0.1 0.3 0.8 1.4 0.8 0.8-0.3 0.2-0.4-0.3-0.2-0.4 0.3 0.5 0.9 0.4 0.9 0.8-0.3 0.3-0.7-0.3-0.6 0.2 0.9 0.5 0.8 1 1.3 1.7-0.4-0.5-0.5 0.4-0.9 0-0.1-1.5-1.8-1.2-1.8-2.7-0.2-0.5-0.4-0.1-0.7-0.3 0.4-0.4-1.2-1.8-1.2-1.3-0.5-0.6-0.2-0.8-0.3-1.2-0.4-0.1-0.1 0.4-0.4 0.1 0.4-0.7-0.5-1.6-1.1-2.3l0.4-0.2c-0.7-0.4-0.8-1.2-1.3-2.1-0.6 0.9 1.2 2.9 0.9 3.3 0 0.1 0.7 0.9 0.9 1.3 0.8 1.4 1.4 3.1 2.5 3.9-0.2-0.1-0.1-0.7 0.2-0.4 0 0.3-0.2 0.6-0.2 0.9 0.6 0.6 1.1 1.1 1.7 1.7-1.3-0.8-2.6-1.6-3.5-2.8 0.5-0.1 1 0.8 1.4 0.7-1-0.8-0.7-1.1-1.1-2.1-0.4-0.3 0.1 0.4-0.3 0.5-1.3-1.2-2.3-1.9-2.9-3 0.1-0.1 0.2-0.2 0.2-0.4-0.1-0.1-0.1-0.1-0.2-0.2 0.6 0.6 0.8 1.1 1.5 1.2-0.3-0.3 0-0.4-0.4-0.7-0.2-0.4-0.5 0.2-0.7-0.1 0.2-0.3 0-0.7 0-1-0.2 0-0.4 0-0.5-0.3-0.2-0.1-0.3 0-0.4 0.2-0.1-0.1-0.1-0.3-0.2-0.4v-0.1c-0.1-0.1-0.2-0.3-0.3-0.4-0.8-2.1-1.3-4.9-2.4-6.7 0.3-1.2-0.2-3.6-0.5-4.2 0.3-0.5 0.1-2.8-0.1-3.2-0.5 0.2 0.1 1.3-0.4 1.6-0.5-2.2 0.3-4.7 0.1-6.7 0.2 0 0.4 0 0.4-0.1-0.3-0.3 0.2-0.9 0.1-1.6 0.4-0.9-0.9 1.3-0.9 2.2-0.1 0.2-0.5 0-0.4 0.5 0 0.7 0.2 2.1-0.2 3.1-0.2 0-0.2-0.2-0.4-0.1-0.1 0.5-0.2 1.1-0.3 1.6-0.1-0.2-0.2-0.5-0.2-0.6-0.5-2.5 0-5.4-0.2-7.5 0.4 0 0.4-0.6 0.7-0.8-0.1 0.8-0.3 1.8 0.2 2 0.4-3.9 1.2-8.2 3-12.4 1.3-3.1 3.2-6.2 5.5-8.7 0.2 0.3-0.1 1 0 1.3 2-2.1 3.3-4.6 5.5-6 0.1 0.5-0.9 0.9-0.9 1.3 0.9-0.9 1.2-0.6 2.2-0.9 0.3-0.4-0.4 0-0.5-0.4 0.6-0.4 1-0.9 1.4-1.2 0 0.1-0.1 0.1-0.1 0.2 1.1-0.3 1.2-0.9 2-1.1-0.1-0.1-0.3-0.2-0.6-0.1 0.2-0.1 0.5-0.3 0.8-0.4-0.1 0-0.1 0.1-0.2 0.1 0.6-0.3 0.1 0.1 0.1 0.3 0.1 0 0.2-0.1 0.2-0.1-0.6 0.4-1 0.6-1.2 1.3 0.3-0.2 0.4 0 0.8-0.3 0.4-0.2-0.1-0.5 0.2-0.7 0.3 0.2 0.7 0.1 1 0.1 0-0.2 0.1-0.4 0.3-0.5 0.1-0.2 0-0.3-0.1-0.3 0.1-0.1 0.2-0.1 0.4-0.2 0 0 0.1 0 0.1 0.1 1.7-0.8 3.6-1.5 5.4-2.1 1.1-0.1 2.5-0.1 3.1-0.8-0.2 0-0.4 0.1-0.5 0 0.1 0 0.3-0.1 0.4-0.1 0.2 0.2 0.5 0 0.2 0.4 0.1 0 0.1 0 0.2-0.1 0 0.1 0 0.1 0.1 0.2 0.1 0 0.2-0.1 0.3-0.3 0.1 0 0.2 0 0.3-0.1l-0.1 0.1c0.8-0.2 1.5-0.1 2.6-0.3 0-0.1 0-0.2 0-0.3 0.2 0 0.3-0.1 0.5-0.1v0.1c0.4-0.2 0.8 0.2 0.8 0 0.1 0 0.1 0 0.2 0 0 0.2-0.1 0.3-0.1 0.4 0.5 0 0.8 0 1-0.3-0.1-0.1-0.2-0.1-0.3-0.1 0.2 0 0.4-0.1 0.6-0.2 0.3 0.1 0.4 0.2 0.4 0.6 0.5-0.9 2.1 0.2 2.8 0 0.3 0 0.2-0.4 0.4-0.6 0.1 0 0.2 0 0.3 0 0.5 0.4 1.2 0.8 2.1 0.9-0.8-0.2 0.1-0.3 0.2-0.4-0.2 0-0.2-0.1-0.2-0.2 0.3 0 0.6 0.1 0.9 0.1 0 0.2 0.1 0.3 0.3 0.3 0.2 0 0.2-0.1 0.2-0.3 0.3 0 0.5 0 0.8 0.1-0.1 0.4 0.5 0.5 0.7 0.8-0.8-0.2-1.7-0.5-2 0 3.2 0.7 6.7 1.7 10.1 3.4 0 0 0 0 0 0.1h0.1c0.6 0.3 1.2 0.6 1.8 0.9 0.4 0.2 0.7 0.4 1.1 0.7 0 0.1 0 0.2 0.2 0.2h0.1c0.4 0.3 0.8 0.5 1.2 0.8 0.4 0.6 0.8 1.4 1.5 1.2 1.5 2.3 3.1 3.2 4.4 5.6 0.1-0.4 0.4 0.9 0.9 1-0.8-0.1 0.5 0.5-0.3 0.4 0.7 0.7 0.9 1 1 1.8-0.2-0.4-0.3-0.5-0.4-0.1-0.1 0.6 0.7-0.1 1 0.5-0.6 0-0.4 0.4-0.3 0.9 0.3-0.3 0.2-0.6 0.5-0.5 0.4 0.4-0.2 0.5-0.1 0.8 0.3-0.4 0.4-0.2 0.8 0-0.5 0.1 0.3 0.8-0.3 0.5 0.4 0.5 0.5 0.8 0.3 1.3-0.4-0.6-0.1-1-0.7-0.9 1.2 1 0.6 3.3 2 3.5-0.9 0.2 0 0.6-0.5 0.7 0.6 0.2 0.3 1 1 1.2-0.1 0.5-0.3 0.8-0.4 1.3 0.3 0.4 0.4 1.2 0.9 1.3-0.3 0.3-0.1 1.1-0.4 1.4 0.4-0.2 0.6-0.2 0.9 0.2-0.5 0.4-0.1 0.8-0.4 0.9 0.9 2.3-0.2 7 0.3 8.8-0.6-0.3-0.4 0.7-0.8 0.7 0.7 0.3 0.1 0.8 0.4 1.3-1.4 0.8 0 3-1.9 3.5 0.2 1.4-0.6 2-1.2 3.5-0.1-0.1-0.1-0.2-0.2-0.3-0.1 0.7-0.5 0.8-0.3 1.4l-0.4-0.2c0 1.1-1.7 1.7-2.1 3.4-0.1 0.5-1.6 1.8-2 2.5-0.2 0.3-0.1 0.8-0.3 0.1-0.1 0.1-0.3 0.1-0.4 0.1-0.1 0.7-0.7 0.9-0.9 1.8-0.2 0.1-0.5-0.2-0.7 0.1 0 0.2 0.2 0.5 0.1 0.7 1.8-0.1 1.8-2.2 3.2-2.9-0.1 0.3-0.7 0.6-0.3 0.8 0.3 0 1.2-1 0.7-0.9 0.3 0.2-0.3 0.4-0.4 0.3 0.5-0.4 0.3-0.9 0.7-1 0.3 0.2-0.3 0.7 0.3 0.6 0.4-0.9 0.9-1 1.5-1.5-0.4 0.4 0.5 0.5 0.1 0.9-1.5 0.3-1 2-2.5 2.2-0.4 0.3-0.1 0.4-0.2 0.7-0.5-0.3-1.6 1.4-1.2 1.3-0.5 0.5-0.8 0.3-1.2 0.4-0.1 0.4 0.4 0.1 0.2 0.4-0.7-0.3-1.6 0.7-2.2 1.4l-0.3-0.3c-0.3 0.8-1.1 0.9-2 1.5 1 0.5 2.7-1.6 3.2-1.3 0.1 0 0.9-0.8 1.2-1.1 1.3-1 2.9-1.8 3.5-2.9-0.1 0.2-0.7 0.2-0.4-0.1 0.3-0.1 0.6 0.1 0.9 0.1 1.6-2.2 3.6-4 5.1-6.6 0.1-0.1 0.2-0.3 0.3-0.5-0.2 0.6-0.5 1.1-0.7 1.7-1.6 1.1-2.2 4.3-4.1 4.8 0.1 1.1-0.9 1.4-1.4 2.7-0.3 0.4-0.5-0.3-0.8 0.2 0.3 1.4-2.5 1.3-2.4 2.6-0.2 0.1-0.5 0.2-0.7 0.4h-0.1c-0.1 0.1-0.1 0.1-0.2 0.2-0.5 0.3-0.9 0.6-1.3 0.9-1.4 0.8-3.3 1.4-4.8 2.2v-0.1c-0.4 0.2-0.9 0.1-0.8 0.5-0.3 0.2-0.6 0.4-0.9 0.6-0.1 0-0.1 0-0.2 0 0 0-0.1-0.1-0.2-0.1-0.2 0-0.2 0-0.3 0.1-1.3 0.1-3 0.7-3.5 1.1-0.5-0.3-2.8 0.2-3.2 0.4 0.2 0.3 0.8 0 1.3 0-0.3 0.1-0.6 0.2-0.7 0.4-0.1 0-0.1 0-0.2 0-0.1-0.3-0.4 0-0.5-0.1h0.1c-0.1-0.4-0.4-0.6-0.9-0.5 0 0.2 0 0.3-0.1 0.5 0.2 0 0.8-0.3 0.8 0-0.1 0-0.1 0.1 0 0.1-0.2 0.2-0.5 0.2-0.7 0.3-0.4 0-0.9 0-1.3 0-0.1-0.1-0.2-0.1-0.4-0.2-0.1 0.1-0.3 0.1-0.4 0.2-0.6 0-1.3 0.1-1.8 0.2 0-0.2 0-0.4-0.2-0.4-0.3 0.4-0.9-0.1-1.6 0.1-0.7-0.2 0.4 0.3 1.4 0.5-0.1 0.1-0.2 0.2-0.5 0.3M37.5 86.6c-1.4-1.3-4.3-1.9-4.8-2.9-0.8-0.1-2-1.6-3-1.8 0.5 0 0.1-0.3 0-0.5-0.2 0.2-0.4 0.3-0.6 0.3 0-0.8-0.8-1.3-1.5-1.8 0.5 0.3 0.9 0.5 1.5 0.6 0-0.2 0-0.4 0.2-0.4 0.7 0.7 1.5 1.4 2.4 2.1 1.2 1.1 7.4 3.9 8.5 4.4 0 0-0.2 0.4-0.1 0.4 0.5 0.3 0.9-0.3 1 0.4-1.6 0.2-2.2-0.9-3.6-0.8M83.6 63.4v0.1 0c-0.1 0 0-0.1 0-0.1M43.2 17.1c-0.1 0.1-0.2 0.1-0.2 0.1 0-0.1 0.1-0.1 0.2-0.1M41.3 17.6c0 0.1 0 0.1 0 0 0 0.1 0 0.1 0 0 0 0.1 0 0 0 0M34.7 19.7v0c0.1-0.1 0.1-0.1 0.2-0.1-0.1 0-0.2 0.1-0.2 0.1M50.7 16.4c-0.2 0-0.3 0-0.4-0.1 0.1 0 0.2 0 0.3 0h0.1c0 0 0 0 0 0.1M52.5 16.6c-0.1-0.1-0.4-0.2-0.7-0.2 0-0.1 0.1-0.2 0.1-0.2 0.1 0 0.2 0 0.3 0 0 0 0.1 0 0.1 0.1 0 0 0 0 0-0.1 0.1 0 0.1 0 0.2 0 0.1 0.2 0.2 0.3 0 0.4M55.8 16.9c-0.5 0.1-0.8-0.1-1.3-0.4 0.3 0 0.7 0.1 1 0.2 0.1 0 0.2 0.1 0.3 0.2M91.4 31.1c-0.2 0.1-0.3 0.1-0.5-0.3-1.6-3.4-4.5-8.3-8.7-12.4-4.1-4.2-9.6-7.6-14.6-9.4 0.3 0.1 0.7 0.3 0.5 0.5-4.4-1.7-8.6-2.7-12.6-3.1-10.8-1.7-22.1 0.6-30.8 6.2 0.1 0.2 0.1 0.3-0.2 0.5-3.2 2-7.7 5.5-11.3 10.1-3.6 4.6-6.4 10.4-7.6 15.6 0.1-0.3 0.2-0.8 0.4-0.6-2.6 10.3-1.9 19.1 1.7 26.7 0.2-0.2-0.5-1.2 0.1-1.1 0.4 1.1 0.9 2.3 1.5 3.4 0.7 1.6 1.5 3.7 2.6 4.2-2.8-5.5-4.7-11.8-4.9-17.4 0.4 0.8 0.3 2.5 0.9 3.2 0.2-3.8-0.7-8.9 0.6-12.5-0.3 1.9-0.5 4.5-0.3 7.1 0 1.9 0.9 7.2 1.5 7.7-0.1-0.1-0.1-0.6 0-0.6 0.3 0.6-0.4 0.9 0.1 1 0-0.2 0.1-0.2 0.2-0.2 1 2.2 2.3 5.6 3.3 7.3 1.2 2.2 2.8 4.2 4.6 6 0 0.1 0.1 0.1 0.1 0.2 0.2 0.5 0.9 1.1 1.1 1.5 0.1 0.2-0.1 0.5 0 0.7 1.5 2.8 3.7 5.6 6.4 7.8 1.7 2 4.4 4.1 7.7 5.9 3.2 1.7 6.9 3.1 10.3 3.9 2.4 0.6 5.3 0.7 7.1 1.1 2.4 0.5 6.6-0.2 8.7-0.6 12.6-1.9 25.1-10.5 31.4-22.9 6.5-12.5 6.3-27.8 0.7-39.5" fill="#000028" fill-rule="nonzero" stroke="none" stroke-width="1" stroke-linecap="butt" stroke-linejoin="miter" stroke-miterlimit="10" stroke-dasharray="" stroke-dashoffset="0" font-family="none" font-weight="none" font-size="none" text-anchor="none" style="mix-blend-mode: normal" data-fill-palette-color="tertiary"></path></g><g transform="matrix(1,0,0,1,80,149.81753806451613)"><svg viewBox="0 0 160 60.36492387096774" height="60.36492387096774" width="160"><g><svg viewBox="0 0 160 60.36492387096774" height="60.36492387096774" width="160"><g transform="matrix(1,0,0,1,0,37.3079446728972)"><svg viewBox="0 0 160 23.056979198070547" height="23.056979198070547" width="160"><g id="textblocktransform"><svg viewBox="0 0 160 23.056979198070547" height="23.056979198070547" width="160" id="textblock"><g><svg viewBox="0 0 160 23.056979198070547" height="23.056979198070547" width="160"><g transform="matrix(1,0,0,1,0,0)"><svg width="160" viewBox="0.5 -34 331.67 47.8" height="23.056979198070547" data-palette-color="#e64833"><path d="M25.7 0.55L25.7 0.55Q24.15 0.55 23.08-0.78 22-2.1 21-5.15L21-5.15Q20.5-6.65 20.18-8.08 19.85-9.5 19.7-10.85L19.7-10.85Q19.05-9.85 18.53-9.53 18-9.2 17-9.2L17-9.2Q14.55-9.2 11.8-9.28 9.05-9.35 6.9-9.4L6.9-9.4Q6.8-8.5 6.73-7.58 6.65-6.65 6.65-5.75L6.65-5.75Q6.65-4.95 6.73-4.15 6.8-3.35 6.85-2.6L6.85-2.6Q7-1.2 5.75-0.35 4.5 0.5 2.65 0.5L2.65 0.5Q1.05 0.5 1.05-0.9L1.05-0.9Q1.05-1.75 1.5-3.45L1.5-3.45Q1.75-4.6 1.9-5.43 2.05-6.25 2.05-6.75L2.05-6.75Q2.05-8.15 1.2-8.65L1.2-8.65Q0.5-9.05 0.5-9.7L0.5-9.7Q0.5-10.3 0.78-11.15 1.05-12 1.5-12.73 1.95-13.45 2.35-13.75L2.35-13.75Q2.7-13.95 3.2-14.1 3.7-14.25 4.45-14.3L4.45-14.3Q6.4-19.9 8.83-23.98 11.25-28.05 14-30.28 16.75-32.5 19.6-32.5L19.6-32.5Q21.35-32.5 22.15-31.33 22.95-30.15 22.95-27.4L22.95-27.4 22.95-25.15Q22.95-20.1 23.7-15.85 24.45-11.6 25.55-8.95L25.55-8.95Q26.65-6.15 28.6-4.35L28.6-4.35Q29.2-3.85 29.4-3.48 29.6-3.1 29.6-2.7L29.6-2.7Q29.6-1.95 29.03-1.2 28.45-0.45 27.55 0.05 26.65 0.55 25.7 0.55ZM8.4-14.6L8.4-14.6Q10.85-14.7 12.7-14.78 14.55-14.85 15.8-14.85L15.8-14.85 19.3-14.85Q19.2-16.25 19.13-17.8 19.05-19.35 19.05-21.05L19.05-21.05 19.05-23.95Q19.05-25.4 18.73-25.88 18.4-26.35 17.5-26.35L17.5-26.35Q15.05-26.35 12.6-23.15 10.15-19.95 8.4-14.6ZM34.65 0.55L34.65 0.55Q32.85 0.55 33.05-0.65L33.05-0.65Q33.6-2.8 33.97-5.03 34.35-7.25 34.35-9.3L34.35-9.3Q34.35-11.95 34.02-13.18 33.7-14.4 33.15-14.88 32.6-15.35 31.8-15.6L31.8-15.6Q31.45-15.75 31.17-16 30.9-16.25 30.9-16.7L30.9-16.7Q30.9-17.4 31.45-18.25 32-19.1 33.02-19.73 34.05-20.35 35.35-20.35L35.35-20.35Q37.05-20.35 37.7-19.18 38.35-18 38.35-16.1L38.35-16.1Q38.35-14.85 38.1-13.3 37.85-11.75 37.6-10.5L37.6-10.5 37.75-10.45Q38.75-13.1 40.17-15.38 41.6-17.65 43.5-19.05 45.4-20.45 47.9-20.45L47.9-20.45Q50.55-20.45 51.95-18.85 53.35-17.25 53.35-14.85L53.35-14.85Q53.35-13.85 53.12-12.95 52.9-12.05 52.65-11.2L52.65-11.2Q52.4-10.4 52.22-9.55 52.05-8.7 52.05-7.85L52.05-7.85Q52.05-5 54.75-4L54.75-4Q55.45-3.7 55.45-3.1L55.45-3.1Q55.45-2.65 55.15-1.8 54.85-0.95 54.05-0.23 53.25 0.5 51.7 0.5L51.7 0.5Q49.7 0.5 48.6-0.93 47.5-2.35 47.5-4.55L47.5-4.55Q47.5-5.8 47.77-7.08 48.05-8.35 48.35-9.45L48.35-9.45Q48.55-10.3 48.72-11.13 48.9-11.95 48.9-12.6L48.9-12.6Q48.9-14.9 46.5-14.9L46.5-14.9Q44.45-14.9 42.9-13.38 41.35-11.85 40.25-9.55 39.15-7.25 38.45-4.9L38.45-4.9 38.45-3.7Q38.45-1.85 37.42-0.65 36.4 0.55 34.65 0.55ZM64.9 0.65L64.9 0.65Q61.9 0.65 60.17-1.35 58.45-3.35 58.45-6.8L58.45-6.8Q58.45-9.35 59.27-11.8 60.1-14.25 61.6-16.2 63.1-18.15 65.09-19.3 67.09-20.45 69.45-20.45L69.45-20.45Q70.95-20.45 72.12-20 73.3-19.55 74.2-18.85L74.2-18.85Q74.15-22.25 73.84-24.95 73.55-27.65 72.4-29.95L72.4-29.95Q72.2-30.35 72.07-30.68 71.95-31 71.95-31.3L71.95-31.3Q71.95-32 72.52-32.6 73.09-33.2 73.95-33.6 74.8-34 75.55-34L75.55-34Q76.9-34 77.57-32.83 78.25-31.65 78.45-29.63 78.65-27.6 78.65-25L78.65-25Q78.65-21.2 78.3-18.15 77.95-15.1 77.65-12.8L77.65-12.8Q77.45-11.3 77.3-10.2 77.15-9.1 77.15-8.4L77.15-8.4Q77.15-4.85 80.2-4.2L80.2-4.2Q81-4.05 81-3.15L81-3.15Q81-2.6 80.67-1.75 80.34-0.9 79.5-0.23 78.65 0.45 77.05 0.45L77.05 0.45Q74.9 0.45 74.15-1 73.4-2.45 73.4-5.4L73.4-5.4Q72-2.85 69.84-1.1 67.7 0.65 64.9 0.65ZM66.45-4.7L66.45-4.7Q67.84-4.7 69.25-5.6 70.65-6.5 71.75-8.05L71.75-8.05Q72.4-9 72.92-10.23 73.45-11.45 73.9-12.7L73.9-12.7Q71.34-15 68.25-15L68.25-15Q65.55-15 63.95-13.38 62.35-11.75 62.35-9.35L62.35-9.35Q62.35-7.3 63.55-6 64.75-4.7 66.45-4.7ZM87.24 0.55L87.24 0.55Q86.44 0.55 85.97 0.28 85.49 0 85.64-0.65L85.64-0.65Q86.19-2.8 86.57-5.03 86.94-7.25 86.94-9.3L86.94-9.3Q86.94-11.95 86.62-13.18 86.29-14.4 85.74-14.88 85.19-15.35 84.39-15.6L84.39-15.6Q84.04-15.75 83.77-16 83.49-16.25 83.49-16.7L83.49-16.7Q83.49-17.4 84.04-18.25 84.59-19.1 85.59-19.73 86.59-20.35 87.89-20.35L87.89-20.35Q89.59-20.35 90.27-19.18 90.94-18 90.94-16.1L90.94-16.1Q91.84-18.1 93.17-19.28 94.49-20.45 96.49-20.45L96.49-20.45Q97.84-20.45 98.74-19.85 99.64-19.25 99.64-17.9L99.64-17.9Q99.64-16.55 98.77-15.38 97.89-14.2 96.99-14.2L96.99-14.2Q96.84-14.2 96.64-14.25 96.44-14.3 96.29-14.5L96.29-14.5Q95.64-15.3 94.69-15.3L94.69-15.3Q93.24-15.3 92.14-13.4 91.04-11.5 90.94-8.15L90.94-8.15Q90.99-6.9 91.02-5.6 91.04-4.3 91.04-3.7L91.04-3.7Q91.04-1.85 90.02-0.65 88.99 0.55 87.24 0.55ZM108.09 0.65L108.09 0.65Q104.29 0.65 102.17-1.53 100.04-3.7 100.04-7.6L100.04-7.6Q100.04-11.15 101.59-14.05 103.14-16.95 105.77-18.68 108.39-20.4 111.54-20.4L111.54-20.4Q114.54-20.4 116.34-18.93 118.14-17.45 118.14-15L118.14-15Q118.14-13.05 116.94-11.4 115.74-9.75 113.74-8.78 111.74-7.8 109.29-7.8L109.29-7.8Q106.29-7.8 104.39-9.15L104.39-9.15Q104.44-6.85 105.97-5.45 107.49-4.05 109.89-4.05L109.89-4.05Q111.34-4.05 112.87-4.58 114.39-5.1 115.49-6L115.49-6Q116.19-6.6 116.79-6.6L116.79-6.6Q117.29-6.6 117.62-6.28 117.94-5.95 117.94-5.45L117.94-5.45Q117.94-4.35 116.04-2.55L116.04-2.55Q112.69 0.65 108.09 0.65ZM108.84-11.1L108.84-11.1Q110.64-11.1 111.84-11.85 113.04-12.6 113.04-13.75L113.04-13.75Q113.04-14.7 112.24-15.23 111.44-15.75 110.04-15.75L110.04-15.75Q108.19-15.75 106.81-14.78 105.44-13.8 104.84-12.05L104.84-12.05Q105.54-11.6 106.64-11.35 107.74-11.1 108.84-11.1ZM128.19 0.65L128.19 0.65Q125.19 0.65 123.36-1.23 121.54-3.1 121.54-6.6L121.54-6.6Q121.54-9.1 122.51-11.58 123.49-14.05 125.34-16.05 127.19-18.05 129.79-19.25 132.39-20.45 135.64-20.45L135.64-20.45Q138.64-20.45 140.76-19.43 142.89-18.4 142.89-16.65L142.89-16.65Q142.89-16.2 142.79-15.48 142.69-14.75 142.54-14.3L142.54-14.3Q142.39-13.9 142.11-13.58 141.84-13.25 141.39-13.25L141.39-13.25Q141.19-13.25 140.64-13.4L140.64-13.4Q140.44-12.35 140.34-11.35 140.24-10.35 140.24-9.35L140.24-9.35Q140.24-7.45 140.81-5.98 141.39-4.5 143.09-4.15L143.09-4.15Q143.54-4.05 143.81-3.85 144.09-3.65 144.09-3L144.09-3Q144.09-2.45 143.81-1.6 143.54-0.75 142.76-0.08 141.99 0.6 140.54 0.6L140.54 0.6Q138.59 0.6 137.54-0.83 136.49-2.25 136.49-4.9L136.49-4.9Q135.14-2.45 133.06-0.9 130.99 0.65 128.19 0.65ZM129.79-4.55L129.79-4.55Q131.79-4.55 133.31-5.8 134.84-7.05 135.69-8.95L135.69-8.95Q136.24-10.15 136.54-11.58 136.84-13 136.94-14.4L136.94-14.4Q136.09-14.8 134.99-15.05 133.89-15.3 132.69-15.3L132.69-15.3Q129.64-15.3 127.66-13.5 125.69-11.7 125.69-9L125.69-9Q125.69-7 126.79-5.78 127.89-4.55 129.79-4.55ZM168.98 0.65L168.98 0.65Q167.13 0.65 165.58 0.3 164.03-0.05 163.03-1L163.03-1Q162.28-1.7 162.03-2.58 161.78-3.45 161.78-4.5L161.78-4.5Q161.78-6.2 162.08-7.9L162.08-7.9Q162.53-10.85 162.88-14.25 163.23-17.65 163.23-20.55L163.23-20.55Q163.23-21.45 163.16-22.6 163.08-23.75 162.93-24.75L162.93-24.75Q162.58-24.6 162.26-24.48 161.93-24.35 161.68-24.35L161.68-24.35Q161.23-24.35 161.08-24.8 160.93-25.25 160.93-25.8L160.93-25.8Q160.93-27.25 161.61-28.28 162.28-29.3 163.83-30.1L163.83-30.1Q165.48-31 168.16-31.68 170.83-32.35 173.58-32.35L173.58-32.35Q179.83-32.35 183.41-28.68 186.98-25 186.98-18.25L186.98-18.25Q186.98-14.4 185.81-10.98 184.63-7.55 182.33-4.93 180.03-2.3 176.68-0.83 173.33 0.65 168.98 0.65ZM170.58-4.95L170.58-4.95Q172.83-4.95 175.08-5.65 177.33-6.35 179.16-7.75 180.98-9.15 182.08-11.33 183.18-13.5 183.18-16.55L183.18-16.55Q183.18-20 181.83-22.25 180.48-24.5 178.23-25.6 175.98-26.7 173.23-26.7L173.23-26.7Q171.73-26.7 170.26-26.45 168.78-26.2 167.93-25.95L167.93-25.95Q167.88-23.65 167.66-21.48 167.43-19.3 167.13-17.25L167.13-17.25Q166.83-15.1 166.66-13.05 166.48-11 166.48-9L166.48-9Q166.48-6.5 167.51-5.73 168.53-4.95 170.58-4.95ZM193.38-19.85L193.38-19.85Q192.33-19.85 192.18-21.8L192.18-21.8Q192.03-23 191.96-24.75 191.88-26.5 191.88-28.1L191.88-28.1Q191.88-30.3 192.28-31.38 192.68-32.45 194.58-32.45L194.58-32.45Q196.58-32.45 196.58-30.3L196.58-30.3Q196.58-29.3 196.33-27.75 196.08-26.2 195.76-24.58 195.43-22.95 195.13-21.7L195.13-21.7Q194.93-20.8 194.53-20.33 194.13-19.85 193.38-19.85ZM225.28 0.55L225.28 0.55Q223.73 0.55 222.65-0.78 221.58-2.1 220.58-5.15L220.58-5.15Q220.08-6.65 219.75-8.08 219.43-9.5 219.28-10.85L219.28-10.85Q218.63-9.85 218.1-9.53 217.58-9.2 216.58-9.2L216.58-9.2Q214.13-9.2 211.38-9.28 208.63-9.35 206.48-9.4L206.48-9.4Q206.38-8.5 206.3-7.58 206.23-6.65 206.23-5.75L206.23-5.75Q206.23-4.95 206.3-4.15 206.38-3.35 206.43-2.6L206.43-2.6Q206.58-1.2 205.33-0.35 204.08 0.5 202.23 0.5L202.23 0.5Q200.63 0.5 200.63-0.9L200.63-0.9Q200.63-1.75 201.08-3.45L201.08-3.45Q201.33-4.6 201.48-5.43 201.63-6.25 201.63-6.75L201.63-6.75Q201.63-8.15 200.78-8.65L200.78-8.65Q200.08-9.05 200.08-9.7L200.08-9.7Q200.08-10.3 200.35-11.15 200.63-12 201.08-12.73 201.53-13.45 201.93-13.75L201.93-13.75Q202.28-13.95 202.78-14.1 203.28-14.25 204.03-14.3L204.03-14.3Q205.98-19.9 208.4-23.98 210.83-28.05 213.58-30.28 216.33-32.5 219.18-32.5L219.18-32.5Q220.93-32.5 221.73-31.33 222.53-30.15 222.53-27.4L222.53-27.4 222.53-25.15Q222.53-20.1 223.28-15.85 224.03-11.6 225.13-8.95L225.13-8.95Q226.23-6.15 228.18-4.35L228.18-4.35Q228.78-3.85 228.98-3.48 229.18-3.1 229.18-2.7L229.18-2.7Q229.18-1.95 228.6-1.2 228.03-0.45 227.13 0.05 226.23 0.55 225.28 0.55ZM207.98-14.6L207.98-14.6Q210.43-14.7 212.28-14.78 214.13-14.85 215.38-14.85L215.38-14.85 218.88-14.85Q218.78-16.25 218.7-17.8 218.63-19.35 218.63-21.05L218.63-21.05 218.63-23.95Q218.63-25.4 218.3-25.88 217.98-26.35 217.08-26.35L217.08-26.35Q214.63-26.35 212.18-23.15 209.73-19.95 207.98-14.6ZM234.23 0.55L234.23 0.55Q232.43 0.55 232.63-0.65L232.63-0.65Q233.18-2.8 233.55-5.03 233.93-7.25 233.93-9.3L233.93-9.3Q233.93-11.95 233.6-13.18 233.28-14.4 232.73-14.88 232.18-15.35 231.38-15.6L231.38-15.6Q231.03-15.75 230.75-16 230.48-16.25 230.48-16.7L230.48-16.7Q230.48-17.4 231.03-18.25 231.58-19.1 232.6-19.73 233.63-20.35 234.93-20.35L234.93-20.35Q236.63-20.35 237.28-19.18 237.93-18 237.93-16.1L237.93-16.1Q237.93-14.85 237.68-13.3 237.43-11.75 237.18-10.5L237.18-10.5 237.33-10.45Q238.33-13.1 239.75-15.38 241.18-17.65 243.08-19.05 244.98-20.45 247.48-20.45L247.48-20.45Q250.13-20.45 251.53-18.85 252.93-17.25 252.93-14.85L252.93-14.85Q252.93-13.85 252.7-12.95 252.48-12.05 252.23-11.2L252.23-11.2Q251.98-10.4 251.8-9.55 251.63-8.7 251.63-7.85L251.63-7.85Q251.63-5 254.33-4L254.33-4Q255.03-3.7 255.03-3.1L255.03-3.1Q255.03-2.65 254.73-1.8 254.43-0.95 253.63-0.23 252.83 0.5 251.28 0.5L251.28 0.5Q249.28 0.5 248.18-0.93 247.08-2.35 247.08-4.55L247.08-4.55Q247.08-5.8 247.35-7.08 247.63-8.35 247.93-9.45L247.93-9.45Q248.13-10.3 248.3-11.13 248.48-11.95 248.48-12.6L248.48-12.6Q248.48-14.9 246.08-14.9L246.08-14.9Q244.03-14.9 242.48-13.38 240.93-11.85 239.83-9.55 238.73-7.25 238.03-4.9L238.03-4.9 238.03-3.7Q238.03-1.85 237-0.65 235.98 0.55 234.23 0.55ZM264.72 13.8L264.72 13.8Q260.97 13.8 258.77 12.25 256.57 10.7 256.57 8.25L256.57 8.25Q256.57 6.45 257.7 5.05 258.82 3.65 260.67 3.65L260.67 3.65Q261.72 3.65 261.72 4.25L261.72 4.25Q261.72 4.6 261.6 5.05 261.47 5.5 261.47 5.95L261.47 5.95Q261.47 7.35 263.07 8.03 264.67 8.7 266.92 8.7L266.92 8.7Q268.32 8.7 269.77 8.4 271.22 8.1 272.2 7.48 273.17 6.85 273.17 5.8L273.17 5.8Q273.17 4.65 272.02 4.1 270.87 3.55 269.12 3.28 267.37 3 265.55 2.78 263.72 2.55 262.42 2.05L262.42 2.05Q260.77 1.5 259.97 0.7 259.17-0.1 259.17-1.35L259.17-1.35Q259.17-3.7 262.02-5.1L262.02-5.1Q260.37-5.95 259.55-7.5 258.72-9.05 258.72-10.95L258.72-10.95Q258.72-13.4 260-15.55 261.27-17.7 263.8-19.07 266.32-20.45 270.12-20.45L270.12-20.45Q271.82-20.45 273.57-20.13 275.32-19.8 276.5-18.93 277.67-18.05 277.67-16.4L277.67-16.4Q277.67-15.8 277.42-15.08 277.17-14.35 276.47-14.35L276.47-14.35Q276.17-14.35 275.67-14.48 275.17-14.6 274.77-14.7L274.77-14.7Q274.87-14.2 274.95-13.6 275.02-13 275.02-12.35L275.02-12.35Q275.02-9.4 273.02-7.03 271.02-4.65 267.17-4.2L267.17-4.2Q265.77-4.1 265.1-3.88 264.42-3.65 264.42-3.1L264.42-3.1Q264.42-2.6 265.02-2.38 265.62-2.15 266.57-2.05L266.57-2.05Q269.62-1.8 271.97-1.2 274.32-0.6 275.65 0.73 276.97 2.05 276.97 4.5L276.97 4.5Q276.97 7.35 275.3 9.43 273.62 11.5 270.82 12.65 268.02 13.8 264.72 13.8ZM266.62-8.55L266.62-8.55Q268.92-8.55 270.22-9.8 271.52-11.05 271.52-13.05L271.52-13.05Q271.52-13.6 271.42-14.18 271.32-14.75 271.22-15.15L271.22-15.15Q270.42-15.4 269.67-15.48 268.92-15.55 268.22-15.55L268.22-15.55Q265.57-15.55 264.07-14.55 262.57-13.55 262.57-11.8L262.57-11.8Q262.57-10.25 263.67-9.4 264.77-8.55 266.62-8.55ZM288.32 0.65L288.32 0.65Q284.52 0.65 282.4-1.53 280.27-3.7 280.27-7.6L280.27-7.6Q280.27-11.15 281.82-14.05 283.37-16.95 286-18.68 288.62-20.4 291.77-20.4L291.77-20.4Q294.77-20.4 296.57-18.93 298.37-17.45 298.37-15L298.37-15Q298.37-13.05 297.17-11.4 295.97-9.75 293.97-8.78 291.97-7.8 289.52-7.8L289.52-7.8Q286.52-7.8 284.62-9.15L284.62-9.15Q284.67-6.85 286.2-5.45 287.72-4.05 290.12-4.05L290.12-4.05Q291.57-4.05 293.1-4.58 294.62-5.1 295.72-6L295.72-6Q296.42-6.6 297.02-6.6L297.02-6.6Q297.52-6.6 297.85-6.28 298.17-5.95 298.17-5.45L298.17-5.45Q298.17-4.35 296.27-2.55L296.27-2.55Q292.92 0.65 288.32 0.65ZM289.07-11.1L289.07-11.1Q290.87-11.1 292.07-11.85 293.27-12.6 293.27-13.75L293.27-13.75Q293.27-14.7 292.47-15.23 291.67-15.75 290.27-15.75L290.27-15.75Q288.42-15.75 287.05-14.78 285.67-13.8 285.07-12.05L285.07-12.05Q285.77-11.6 286.87-11.35 287.97-11.1 289.07-11.1ZM305.52 0.5L305.52 0.5Q304.07 0.5 303.37-0.3 302.67-1.1 302.67-3.1L302.67-3.1Q302.67-4.05 302.82-5.55 302.97-7.05 303.17-8.8L303.17-8.8Q303.47-10.95 303.69-13.3 303.92-15.65 303.92-17.8L303.92-17.8Q303.92-20.85 303.64-24.13 303.37-27.4 302.12-29.85L302.12-29.85Q301.67-30.85 301.67-31.3L301.67-31.3Q301.67-31.95 302.24-32.55 302.82-33.15 303.67-33.58 304.52-34 305.32-34L305.32-34Q306.62-34 307.27-32.83 307.92-31.65 308.12-29.63 308.32-27.6 308.32-25L308.32-25Q308.32-21.05 307.99-18.15 307.67-15.25 307.37-13.05L307.37-13.05Q307.17-11.6 306.99-10.3 306.82-9 306.82-7.95L306.82-7.95Q306.82-6.2 307.39-5.43 307.97-4.65 309.27-3.9L309.27-3.9Q309.62-3.7 309.79-3.53 309.97-3.35 309.97-3L309.97-3Q309.97-2.6 309.57-1.75 309.17-0.9 308.19-0.2 307.22 0.5 305.52 0.5ZM321.12 0.65L321.12 0.65Q317.67 0.65 315.59-1.23 313.52-3.1 313.52-6.75L313.52-6.75Q313.52-8.45 313.99-10.05 314.47-11.65 315.27-13.05L315.27-13.05Q314.47-12.55 314.07-12.55L314.07-12.55Q313.47-12.55 313.24-13.23 313.02-13.9 313.02-14.55L313.02-14.55Q313.02-15.7 313.49-16.38 313.97-17.05 314.42-17.4L314.42-17.4Q315.47-18.3 317.72-19.38 319.97-20.45 323.12-20.45L323.12-20.45Q327.42-20.45 329.79-18.05 332.17-15.65 332.17-11.35L332.17-11.35Q332.17-8 330.77-5.28 329.37-2.55 326.89-0.95 324.42 0.65 321.12 0.65ZM322.67-4.45L322.67-4.45Q325.17-4.45 326.89-6.03 328.62-7.6 328.62-10.2L328.62-10.2Q328.62-12.9 326.87-14.05 325.12-15.2 322.82-15.2L322.82-15.2Q321.77-15.2 320.92-15 320.07-14.8 319.32-14.5L319.32-14.5Q318.62-13.5 318.07-12.25 317.52-11 317.52-9.5L317.52-9.5Q317.52-7 319.02-5.73 320.52-4.45 322.67-4.45Z" opacity="1" transform="matrix(1,0,0,1,0,0)" fill="#e64833" class="wordmark-text-0" data-fill-palette-color="primary" id="text-0"></path></svg></g></svg></g></svg></g></svg></g><g transform="matrix(1,0,0,1,55.37467257758128,0)"><svg viewBox="0 0 49.250654844837435 31.8647452517335" height="31.8647452517335" width="49.250654844837435"><g><svg xmlns="http://www.w3.org/2000/svg" xmlns:xlink="http://www.w3.org/1999/xlink" version="1.1" x="8" y="0" viewBox="0.006 10.676 511.9880033380235 490.648" enable-background="new 0 0 512 512" xml:space="preserve" height="31.8647452517335" width="33.250654844837435" class="icon-icon-0" data-fill-palette-color="accent" id="icon-0"><g fill="#e64833" data-fill-palette-color="accent"><path d="M394.66 74.676C400.562 74.676 405.346 69.892 405.346 64.004 405.346 58.112 400.563 53.332 394.66 53.332 388.777 53.332 384.004 58.112 384.004 64.004 384.004 69.892 388.777 74.676 394.66 74.676" fill="#e64833" data-fill-palette-color="accent"></path><path d="M394.66 117.333C400.562 117.333 405.346 112.563 405.346 106.676 405.346 100.783 400.563 96.004 394.66 96.004 388.777 96.004 384.004 100.783 384.004 106.676 384.004 112.563 388.777 117.333 394.66 117.333" fill="#e64833" data-fill-palette-color="accent"></path><path d="M501.336 384H448.004L426.65 352H410.65V330.666H426.65C438.435 330.666 448.004 321.107 448.004 309.322V32.004C448.004 20.225 438.436 10.676 426.65 10.676H21.34C9.56 10.676 0.006 20.225 0.006 32.004V309.322C0.006 321.107 9.56 330.666 21.34 330.666H357.345V352H341.345L320.001 384H266.67A10.66 10.66 0 0 0 256.003 394.666V458.656C256.003 460.558 256.508 462.431 257.479 464.078L276.297 496.078A10.7 10.7 0 0 0 285.502 501.324H482.494C486.277 501.324 489.777 499.324 491.699 496.078L510.533 464.078A10.76 10.76 0 0 0 511.994 458.656V394.666C511.994 388.764 507.219 384 501.336 384M234.665 266.666V234.671C234.665 228.784 229.895 224 224.003 224H213.321L213.316 213.328C213.316 207.435 208.532 202.671 202.649 202.671H202.644L160.002 202.686C154.109 202.686 149.34 207.47 149.34 213.343V224H64.002V74.676H266.67V85.333H213.336C207.449 85.333 202.665 90.112 202.665 96.004V138.676C202.665 144.564 207.45 149.328 213.336 149.328H224.003V181.328C224.003 187.22 228.777 192 234.665 192H266.67V266.666zM149.34 266.666V245.328H160.002C165.894 245.328 170.669 240.563 170.669 234.671V224.015L191.993 224 192.003 234.671C192.013 240.564 196.782 245.328 202.665 245.328H213.336V266.666zM64.002 266.666V245.328H128.002V266.666zM234.665 127.999H224.003V106.676H266.67V170.671H245.336V138.676C245.336 132.784 240.556 127.999 234.665 127.999M288.002 181.328V74.676H341.346V155.02C328.248 166.735 320.002 183.75 320.002 202.671 320.002 221.578 328.248 238.593 341.346 250.328V266.666H288.002zM341.346 202.671C341.346 179.142 360.475 159.999 384.004 159.999S426.65 179.142 426.65 202.671C426.65 226.186 407.533 245.328 384.004 245.328S341.346 226.186 341.346 202.671M410.65 309.322V260.842A64 64 0 0 0 426.65 250.328V309.322zM21.34 309.322V32.004H426.65V154.999A63.63 63.63 0 0 0 384.004 138.676 63.7 63.7 0 0 0 362.66 142.328V74.676C362.66 62.892 353.121 53.332 341.346 53.332H64.002C52.223 53.332 42.669 62.892 42.669 74.676V266.666C42.669 278.451 52.223 288 64.002 288H341.346C347.7 288 353.424 285.205 357.346 280.764V309.323zM378.66 266.441A61 61 0 0 0 384.004 266.666 60 60 0 0 0 389.346 266.441V352H378.66zM352.748 373.324H415.249L426.651 390.451V405.324H341.376L341.347 390.431zM320.062 405.324L320.082 416A10.657 10.657 0 0 0 330.748 426.666H437.346C443.219 426.666 448.004 421.893 448.004 416V405.324H490.65V448H277.346V405.324zM476.406 480H291.592L285.317 469.324H482.69z" fill="#e64833" data-fill-palette-color="accent"></path><path d="M384.004 192C386.719 192 389.465 190.955 391.533 188.877 395.699 184.705 395.699 177.955 391.533 173.799A10.56 10.56 0 0 0 384.004 170.671C366.375 170.671 352.063 184.97 352.004 202.578 351.963 205.328 353.014 208.093 355.121 210.205 359.277 214.377 366.033 214.377 370.219 210.205A10.73 10.73 0 0 0 373.346 202.671C373.346 196.784 378.121 192 384.004 192" fill="#e64833" data-fill-palette-color="accent"></path></g></svg></g></svg></g><g><rect width="55.37467257758128" height="2.0793021788845345" y="28.785443072848963" x="104.6253274224187" fill="#e64833" data-fill-palette-color="accent"></rect><rect width="55.37467257758128" height="2.0793021788845345" y="28.785443072848963" x="0" fill="#e64833" data-fill-palette-color="accent"></rect><rect width="55.37467257758128" height="2.0793021788845345" y="24.626838715079895" x="104.6253274224187" fill="#e64833" data-fill-palette-color="accent"></rect><rect width="55.37467257758128" height="2.0793021788845345" y="24.626838715079895" x="0" fill="#e64833" data-fill-palette-color="accent"></rect></g></svg></g></svg></g></svg></g><defs></defs></svg><rect width="320" height="360" fill="none" stroke="none" visibility="hidden"></rect></g></svg></g></svg>